# xmcd
#
# Track frame offsets:
#	150
#	15690
#	28392
#	41297
#	54422
#	73097
#	86887
#	101910
#	112827
#	129092
#	147702
#	161190
#
# Disc length: 2385 seconds
#
# Revision: 4
# Processed by: cddbd v1.5.2PL0 Copyright (c) Steve Scherf et al.
# Submitted via: audiograbber 1.83.01
#
DISCID=a9094f0c
DTITLE=Various Artist - Country Gold
DYEAR=1900
DGENRE=Oldies
TTITLE0=Dan Seals - My Baby's Got Good Timing
TTITLE1=Anne Murray - I Just Fall In Love Again
TTITLE2=Michael Martin Murphy - What's Forever For
TTITLE3=Crystal Gayle - Talking In Your Sleep
TTITLE4=Juice Newton - The Sweetest Thing
TTITLE5=Dottie West - What Are We Doin' In Love
TTITLE6=Gary Morris - Baby Bye Bye
TTITLE7=Reba McEntire - Can't Even Get The Blues
TTITLE8=John Conlee - Miss Emily's Picture
TTITLE9=Don Williams - I Believe In
TTITLE10=Terri Gibbs - Somebody's Knockiin'
TTITLE11=Gene Watson - Paper Rosie
EXTD=
EXTT0=
EXTT1=
EXTT2=
EXTT3=
EXTT4=
EXTT5=
EXTT6=
EXTT7=
EXTT8=
EXTT9=
EXTT10=
EXTT11=
PLAYORDER=
